<svg width="32" height="32" viewBox="0 0 32 32" fill="none" xmlns="http://www.w3.org/2000/svg">
  <!-- Background -->
  <defs>
    <linearGradient id="bgGradient" x1="0%" y1="0%" x2="100%" y2="100%">
      <stop offset="0%" style="stop-color:#3b82f6;stop-opacity:1" />
      <stop offset="100%" style="stop-color:#1d4ed8;stop-opacity:1" />
    </linearGradient>
    <linearGradient id="paperGradient" x1="0%" y1="0%" x2="100%" y2="100%">
      <stop offset="0%" style="stop-color:#ffffff;stop-opacity:1" />
      <stop offset="100%" style="stop-color:#f8fafc;stop-opacity:1" />
    </linearGradient>
  </defs>
  
  <!-- Background circle -->
  <circle cx="16" cy="16" r="15" fill="url(#bgGradient)" stroke="#1e40af" stroke-width="2"/>
  
  <!-- Resume/CV Document -->
  <rect x="8" y="6" width="16" height="20" rx="2" fill="url(#paperGradient)" stroke="#e2e8f0" stroke-width="0.5"/>
  
  <!-- Header section with profile -->
  <rect x="10" y="8" width="12" height="3" rx="1" fill="#3b82f6" opacity="0.8"/>
  
  <!-- Profile icon/photo placeholder -->
  <circle cx="12" cy="9.5" r="0.8" fill="#ffffff"/>
  
  <!-- Name/title lines -->
  <rect x="14" y="8.8" width="7" height="0.4" rx="0.2" fill="#ffffff"/>
  <rect x="14" y="9.8" width="5" height="0.3" rx="0.15" fill="#ffffff" opacity="0.8"/>
  
  <!-- Content lines representing experience/skills -->
  <rect x="10" y="13" width="10" height="0.4" rx="0.2" fill="#64748b"/>
  <rect x="10" y="14" width="8" height="0.4" rx="0.2" fill="#64748b"/>
  <rect x="10" y="15" width="11" height="0.4" rx="0.2" fill="#64748b"/>
  
  <!-- AI/Tech skills section -->
  <rect x="10" y="17" width="6" height="0.4" rx="0.2" fill="#f59e0b"/>
  <rect x="10" y="18" width="9" height="0.4" rx="0.2" fill="#64748b"/>
  <rect x="10" y="19" width="7" height="0.4" rx="0.2" fill="#64748b"/>
  
  <!-- Projects section -->
  <rect x="10" y="21" width="8" height="0.4" rx="0.2" fill="#10b981"/>
  <rect x="10" y="22" width="10" height="0.4" rx="0.2" fill="#64748b"/>
  <rect x="10" y="23" width="6" height="0.4" rx="0.2" fill="#64748b"/>
  
  <!-- AI symbol overlay -->
  <circle cx="20" cy="22" r="2.5" fill="#f59e0b" stroke="#ffffff" stroke-width="1"/>
  <text x="20" y="23.5" text-anchor="middle" font-family="Arial, sans-serif" font-size="2.5" font-weight="bold" fill="#ffffff">AI</text>
</svg> 